<?xml version="1.0" encoding="UTF-8"?>
<svg width="24px" height="24px" viewBox="0 0 24 24" version="1.1" xmlns="http://www.w3.org/2000/svg" xmlns:xlink="http://www.w3.org/1999/xlink">
    <title>菜单/健康管理门诊/默认</title>
    <g id="菜单/健康管理门诊/默认" stroke="#333333" stroke-width="1" fill="none" fill-rule="evenodd">
        <g id="编组" transform="translate(1.000000, 1.000000)">
            <polygon id="路径"  stroke-width="2" stroke-linejoin="round" points="3.99999875 12 3.99999875 21 16.9999987 21 16.9999987 12 10.4999987 5.5"></polygon>
            <path d="M0.29289375,9.7929 C-0.09763125,10.1834 -0.09763125,10.8166 0.29289375,11.2071 C0.68341375,11.59765 1.31657875,11.59765 1.70710375,11.2071 L0.29289375,9.7929 Z M10.4999987,1 L11.2070988,0.292895 C11.0195488,0.105355 10.7651987,0 10.4999987,0 C10.2347987,0 9.98044875,0.105355 9.79289875,0.292895 L10.4999987,1 Z M19.2928987,11.2071 C19.6833987,11.59765 20.3165988,11.59765 20.7070988,11.2071 C21.0976488,10.8166 21.0976488,10.1834 20.7070988,9.7929 L19.2928987,11.2071 Z M1.70710375,11.2071 L11.2070988,1.707105 L9.79289375,0.292895 L0.29289375,9.792895 L1.70710375,11.2071 Z M9.79289875,1.707105 L19.2928987,11.2071 L20.7070988,9.792895 L11.2070988,0.292895 L9.79289875,1.707105 Z" id="形状"  fill-rule="nonzero"></path>
            <line x1="7.99999875" y1="14.5" x2="12.9999987" y2="14.5" id="路径"  stroke-width="2" stroke-linecap="round" stroke-linejoin="round"></line>
            <line x1="10.4999987" y1="12" x2="10.4999987" y2="17" id="路径" stroke-width="2" stroke-linecap="round" stroke-linejoin="round"></line>
        </g>
    </g>
</svg>