<?xml version="1.0" encoding="UTF-8"?>
<svg width="24px" height="24px" viewBox="0 0 24 24" version="1.1" xmlns="http://www.w3.org/2000/svg" xmlns:xlink="http://www.w3.org/1999/xlink">
    <title>首页</title>
    <g id="界面" stroke="none" stroke-width="1" fill="none" fill-rule="evenodd">
        <g id="签约居民管理-健康服务" transform="translate(-40.000000, -436.000000)" fill="#262A30">
            <g id="侧菜单/点击备份-2" transform="translate(24.000000, 424.000000)">
                <g id="首页" transform="translate(16.000000, 12.000000)">
                    <g transform="translate(1.500000, 1.500000)" id="形状结合">
                        <path d="M18.65625,19.3125 C19.1222403,19.3125 19.5,19.6902597 19.5,20.15625 C19.5,20.6222403 19.1222403,21 18.65625,21 L2.34375,21 C1.87775974,21 1.5,20.6222403 1.5,20.15625 C1.5,19.6902597 1.87775974,19.3125 2.34375,19.3125 L18.65625,19.3125 Z M10.5,5.109375 C13.741902,5.109375 16.3765248,7.70844446 16.428893,10.934973 L16.4296875,11.0329367 L16.4296875,17.109375 C16.4296875,17.5753653 16.0519278,17.953125 15.5859375,17.953125 C15.1246071,17.953125 14.7497515,17.5828827 14.7423005,17.1233279 L14.7421875,11.0329367 C14.7421875,8.69365219 12.8431229,6.796875 10.5,6.796875 C8.18030828,6.796875 6.2958382,8.65590633 6.25838076,10.9628923 L6.2578125,11.0329367 L6.2578125,17.109375 C6.2578125,17.5753653 5.88005276,17.953125 5.4140625,17.953125 C4.95273214,17.953125 4.57787652,17.5828827 4.5703125,17.1233279 L4.5703125,11.0329367 C4.5703125,7.7612161 7.22535151,5.109375 10.5,5.109375 Z M8.4609375,13.453125 C8.92226786,13.453125 9.29712348,13.8233673 9.30457446,14.2829221 L9.3046875,17.109375 C9.3046875,17.5753653 8.92692776,17.953125 8.4609375,17.953125 C7.99960714,17.953125 7.62475152,17.5828827 7.61730054,17.1233279 L7.6171875,14.296875 C7.6171875,13.8308847 7.99494724,13.453125 8.4609375,13.453125 Z M2.78537842,10.1924096 C3.16997314,10.1924096 3.48188599,10.5731724 3.48188599,11.0424403 C3.48188599,11.5120266 3.16997314,11.8927894 2.78537842,11.8927894 L0.696181641,11.8927894 C0.311586914,11.8927894 2.13162821e-14,11.5120266 2.13162821e-14,11.0424403 C2.13162821e-14,10.5728541 0.311586914,10.1930463 0.696181641,10.1924096 Z M20.3034924,10.1831771 C20.6880872,10.1831771 21,10.5655317 21,11.0335261 C21,11.5015206 20.6880872,11.8835569 20.3034924,11.8835569 L18.2146216,11.8835569 C17.8297009,11.8835569 17.518114,11.501839 17.518114,11.0335261 C17.518114,10.5652133 17.8297009,10.1831771 18.2146216,10.1831771 Z M2.57628296,3.23616566 C2.91655151,2.90411246 3.41261353,2.85030902 3.68443726,3.11582423 L5.1621936,4.55864792 C5.43401733,4.8244815 5.37926147,5.30903084 5.03899292,5.64108405 C4.69872437,5.97313725 4.20266235,6.02694069 3.93083862,5.76142547 L2.45308228,4.31860179 C2.18125854,4.05276821 2.2360144,3.56821886 2.57628296,3.23616566 Z M17.4493433,3.1091386 C17.7214929,2.84362338 18.2175549,2.89710846 18.5574976,3.22948002 C18.8974402,3.56185159 18.952522,4.04640094 18.6806982,4.31191615 L17.2032678,5.7550582 C16.9314441,6.02057342 16.4353821,5.96645161 16.0954395,5.63439841 C15.7554968,5.30234521 15.700415,4.81779586 15.9722388,4.55196228 Z M10.5657495,-1.59872116e-14 C11.0464929,-1.59872116e-14 11.4359766,0.304673934 11.4359766,0.680342943 L11.4359766,2.72073504 C11.4359766,3.09672242 11.0464929,3.40107799 10.5657495,3.40107799 C10.0850061,3.40107799 9.69519653,3.09672242 9.69519653,2.72073504 L9.69519653,0.680342943 C9.69519653,0.304673934 10.0850061,-1.59872116e-14 10.5657495,-1.59872116e-14 Z"></path>
                    </g>
                </g>
            </g>
        </g>
    </g>
</svg>