<?xml version="1.0" encoding="UTF-8"?>
<svg width="24px" height="24px" viewBox="0 0 24 24" version="1.1" xmlns="http://www.w3.org/2000/svg" xmlns:xlink="http://www.w3.org/1999/xlink">
    <title>菜单/签约居民/默认</title>
    <g id="菜单/签约居民/默认" stroke-width="1" fill="none" fill-rule="evenodd" stroke-linejoin="round">
        <g id="编组" transform="translate(4.000000, 3.000000)" stroke="#333333" stroke-width="2">
            <path d="M0,15.5 L0.002305,11.5213 C0.002755,11.2453 0.226565,11.0216 0.502595,11.0213 C2.16955,11.0213 3.83655,11.0213 5.50355,11.0213 C5.9643,11.0213 5.96185,10.6126 5.96185,9.6396 C5.96185,8.6666 3.51105,7.84705 3.51105,4.4264 C3.51105,1.005755 6.04995,0 8.16,0 C10.27005,0 12.5683,1.005755 12.5683,4.4264 C12.5683,7.84705 10.13035,8.3909 10.13035,9.6396 C10.13035,10.88825 10.13035,11.0213 10.52065,11.0213 C12.18045,11.0213 13.8403,11.0213 15.50015,11.0213 C15.77625,11.0213 16.00015,11.2452 16.00015,11.5213 L16.00015,15.5 L0,15.5 Z" id="路径"></path>
            <line x1="0" y1="18.5" x2="16" y2="18.5" id="路径" stroke-linecap="round"></line>
        </g>
    </g>
</svg>