<?xml version="1.0" encoding="UTF-8"?>
<svg width="24px" height="24px" viewBox="0 0 24 24" version="1.1" xmlns="http://www.w3.org/2000/svg" xmlns:xlink="http://www.w3.org/1999/xlink">
    <title>菜单/配置/默认</title>
    <g id="菜单/置/默认" stroke="#333333" stroke-width="1" fill="none" fill-rule="evenodd" stroke-linejoin="round">
        <g id="编组" transform="translate(2.000000, 2.000000)" stroke-width="2">
            <path d="M7.1419,19.22408 C5.46635,18.72523 3.9749,17.79908 2.793935,16.57193 C3.2345,16.04978 3.5,15.37513 3.5,14.63848 C3.5,12.98163 2.156855,11.63848 0.5,11.63848 C0.399775,11.63848 0.300695,11.64343 0.202995,11.65303 C0.069895,11.00228 0,10.32858 0,9.63848 C0,8.59318 0.160385,7.58533 0.457895,6.63818 C0.471905,6.63838 0.48594,6.63848 0.5,6.63848 C2.156855,6.63848 3.5,5.29533 3.5,3.63848 C3.5,3.16283 3.3893,2.71308 3.1923,2.313485 C4.34875,1.23818 5.76025,0.43344 7.32605,0 C7.8222,0.972525 8.83335,1.638495 10,1.638495 C11.16665,1.638495 12.1778,0.972525 12.67395,0 C14.23975,0.43344 15.65125,1.23818 16.8077,2.313485 C16.6107,2.71308 16.5,3.16283 16.5,3.63848 C16.5,5.29533 17.84315,6.63848 19.5,6.63848 C19.51405,6.63848 19.5281,6.63838 19.5421,6.63818 C19.8396,7.58533 20,8.59318 20,9.63848 C20,10.32858 19.9301,11.00228 19.797,11.65303 C19.6993,11.64343 19.60025,11.63848 19.5,11.63848 C17.84315,11.63848 16.5,12.98163 16.5,14.63848 C16.5,15.37513 16.7655,16.04978 17.20605,16.57193 C16.0251,17.79908 14.53365,18.72523 12.8581,19.22408 C12.4714,18.01443 11.338,17.13848 10,17.13848 C8.662,17.13848 7.5286,18.01443 7.1419,19.22408 Z" id="路径"></path>
            <path d="M10,13.13843 C11.933,13.13843 13.5,11.57143 13.5,9.63843 C13.5,7.70543 11.933,6.13843 10,6.13843 C8.067,6.13843 6.5,7.70543 6.5,9.63843 C6.5,11.57143 8.067,13.13843 10,13.13843 Z" id="路径"></path>
        </g>
    </g>
</svg>