<?xml version="1.0" encoding="UTF-8"?>
<svg width="24px" height="24px" viewBox="0 0 24 24" version="1.1" xmlns="http://www.w3.org/2000/svg" xmlns:xlink="http://www.w3.org/1999/xlink">
    <title>菜单/用户中心/默认</title>
    <g id="菜单/用户中心/默认" stroke="#333333" stroke-width="1" fill="none" fill-rule="evenodd" stroke-linejoin="round">
        <path d="M12,15.13843 C13.933,15.13843 15.5,13.57143 15.5,11.63843 C15.5,9.70543 13.933,8.13843 12,8.13843 C10.067,8.13843 8.5,9.70543 8.5,11.63843 C8.5,13.57143 10.067,15.13843 12,15.13843 Z" id="路径" stroke-width="2"></path>
        <path d="M12,22 C17.5228571,22 22,17.5228571 22,12 C22,6.47714286 17.5228571,2 12,2 C6.47714286,2 2,6.47714286 2,12 C2,17.5228571 6.47714286,22 12,22 Z" id="路径备份" stroke-width="2"></path>
        <path d="M17.6351258,19.5732526 C16.7933349,17.2769745 14.5880227,15.63843 12,15.63843 C10.3260778,15.63843 8.81226045,16.3239066 7.7239395,17.4294684 C7.12645825,18.0364148 6.65721904,18.7699723 6.36013444,19.5862285" id="路径" stroke-width="2" stroke-linecap="round"></path>
    </g>
</svg>